<svg xmlns="http://www.w3.org/2000/svg" xmlns:xlink="http://www.w3.org/1999/xlink" width="500" zoomAndPan="magnify" viewBox="0 0 375 374.999991" height="500" preserveAspectRatio="xMidYMid meet" version="1.0"><defs><g/><clipPath id="fcb4f006a7"><path d="M 85.992188 80.730469 L 284.742188 80.730469 L 284.742188 279.480469 L 85.992188 279.480469 Z M 85.992188 80.730469 " clip-rule="nonzero"/></clipPath><clipPath id="40069d6b9b"><path d="M 268.804688 148.832031 C 274.117188 146.84375 280.089844 149.527344 281.523438 155.015625 C 286.921875 175.707031 285.523438 197.691406 277.375 217.660156 C 267.925781 240.8125 250.09375 259.550781 227.4375 270.136719 C 204.78125 280.722656 178.96875 282.378906 155.148438 274.773438 C 131.324219 267.167969 111.246094 250.863281 98.914062 229.109375 C 86.585938 207.355469 82.90625 181.75 88.621094 157.40625 C 94.332031 133.0625 109.011719 111.765625 129.730469 97.765625 C 150.453125 83.765625 175.6875 78.089844 200.40625 81.875 C 221.722656 85.136719 241.304688 95.230469 256.285156 110.492188 C 260.257812 114.539062 259.492188 121.046875 255.054688 124.582031 C 250.617188 128.117188 244.199219 127.328125 240.117188 123.386719 C 228.441406 112.117188 213.5 104.664062 197.296875 102.179688 C 177.6875 99.179688 157.667969 103.679688 141.234375 114.785156 C 124.796875 125.890625 113.152344 142.785156 108.621094 162.097656 C 104.089844 181.410156 107.003906 201.722656 116.789062 218.980469 C 126.570312 236.238281 142.496094 249.171875 161.394531 255.203125 C 180.292969 261.234375 200.769531 259.921875 218.742188 251.523438 C 236.710938 243.125 250.855469 228.261719 258.355469 209.894531 C 264.550781 194.71875 265.828125 178.070312 262.15625 162.265625 C 260.871094 156.738281 263.492188 150.824219 268.804688 148.832031 Z M 268.804688 148.832031 " clip-rule="nonzero"/></clipPath><linearGradient x1="-0.334983" gradientTransform="matrix(0.974265, 0, 0, 0.974265, 85.992724, 80.730258)" y1="91.259411" x2="204.411064" gradientUnits="userSpaceOnUse" y2="92.010959" id="760c691d58"><stop stop-opacity="1" stop-color="rgb(64.802551%, 21.058655%, 49.882507%)" offset="0"/><stop stop-opacity="1" stop-color="rgb(64.677429%, 21.0495%, 49.966431%)" offset="0.00365721"/><stop stop-opacity="1" stop-color="rgb(64.552307%, 21.040344%, 50.05188%)" offset="0.0078125"/><stop stop-opacity="1" stop-color="rgb(64.427185%, 21.029663%, 50.135803%)" offset="0.015625"/><stop stop-opacity="1" stop-color="rgb(64.175415%, 21.011353%, 50.305176%)" offset="0.0234375"/><stop stop-opacity="1" stop-color="rgb(63.925171%, 20.993042%, 50.474548%)" offset="0.03125"/><stop stop-opacity="1" stop-color="rgb(63.674927%, 20.974731%, 50.643921%)" offset="0.0390625"/><stop stop-opacity="1" stop-color="rgb(63.424683%, 20.956421%, 50.813293%)" offset="0.046875"/><stop stop-opacity="1" stop-color="rgb(63.172913%, 20.936584%, 50.982666%)" offset="0.0546875"/><stop stop-opacity="1" stop-color="rgb(62.922668%, 20.918274%, 51.153564%)" offset="0.0625"/><stop stop-opacity="1" stop-color="rgb(62.672424%, 20.899963%, 51.322937%)" offset="0.0703125"/><stop stop-opacity="1" stop-color="rgb(62.420654%, 20.881653%, 51.49231%)" offset="0.078125"/><stop stop-opacity="1" stop-color="rgb(62.17041%, 20.863342%, 51.661682%)" offset="0.0859375"/><stop stop-opacity="1" stop-color="rgb(61.920166%, 20.843506%, 51.831055%)" offset="0.09375"/><stop stop-opacity="1" stop-color="rgb(61.669922%, 20.825195%, 52.000427%)" offset="0.101562"/><stop stop-opacity="1" stop-color="rgb(61.418152%, 20.806885%, 52.1698%)" offset="0.109375"/><stop stop-opacity="1" stop-color="rgb(61.167908%, 20.788574%, 52.339172%)" offset="0.117187"/><stop stop-opacity="1" stop-color="rgb(60.917664%, 20.770264%, 52.510071%)" offset="0.125"/><stop stop-opacity="1" stop-color="rgb(60.665894%, 20.750427%, 52.679443%)" offset="0.132812"/><stop stop-opacity="1" stop-color="rgb(60.415649%, 20.732117%, 52.848816%)" offset="0.140625"/><stop stop-opacity="1" stop-color="rgb(60.165405%, 20.713806%, 53.018188%)" offset="0.148438"/><stop stop-opacity="1" stop-color="rgb(59.915161%, 20.695496%, 53.187561%)" offset="0.15625"/><stop stop-opacity="1" stop-color="rgb(59.663391%, 20.677185%, 53.356934%)" offset="0.164062"/><stop stop-opacity="1" stop-color="rgb(59.413147%, 20.657349%, 53.526306%)" offset="0.171875"/><stop stop-opacity="1" stop-color="rgb(59.162903%, 20.639038%, 53.695679%)" offset="0.179688"/><stop stop-opacity="1" stop-color="rgb(58.911133%, 20.620728%, 53.866577%)" offset="0.1875"/><stop stop-opacity="1" stop-color="rgb(58.660889%, 20.602417%, 54.03595%)" offset="0.195312"/><stop stop-opacity="1" stop-color="rgb(58.410645%, 20.584106%, 54.205322%)" offset="0.203125"/><stop stop-opacity="1" stop-color="rgb(58.158875%, 20.56427%, 54.374695%)" offset="0.210938"/><stop stop-opacity="1" stop-color="rgb(57.90863%, 20.545959%, 54.544067%)" offset="0.21875"/><stop stop-opacity="1" stop-color="rgb(57.658386%, 20.527649%, 54.71344%)" offset="0.226562"/><stop stop-opacity="1" stop-color="rgb(57.408142%, 20.509338%, 54.882812%)" offset="0.234375"/><stop stop-opacity="1" stop-color="rgb(57.156372%, 20.491028%, 55.052185%)" offset="0.242188"/><stop stop-opacity="1" stop-color="rgb(56.906128%, 20.471191%, 55.223083%)" offset="0.25"/><stop stop-opacity="1" stop-color="rgb(56.655884%, 20.452881%, 55.392456%)" offset="0.257812"/><stop stop-opacity="1" stop-color="rgb(56.404114%, 20.43457%, 55.561829%)" offset="0.265625"/><stop stop-opacity="1" stop-color="rgb(56.15387%, 20.41626%, 55.731201%)" offset="0.273438"/><stop stop-opacity="1" stop-color="rgb(55.903625%, 20.397949%, 55.900574%)" offset="0.28125"/><stop stop-opacity="1" stop-color="rgb(55.653381%, 20.378113%, 56.069946%)" offset="0.289062"/><stop stop-opacity="1" stop-color="rgb(55.401611%, 20.359802%, 56.239319%)" offset="0.296875"/><stop stop-opacity="1" stop-color="rgb(55.151367%, 20.341492%, 56.408691%)" offset="0.304688"/><stop stop-opacity="1" stop-color="rgb(54.901123%, 20.323181%, 56.57959%)" offset="0.3125"/><stop stop-opacity="1" stop-color="rgb(54.649353%, 20.304871%, 56.748962%)" offset="0.320312"/><stop stop-opacity="1" stop-color="rgb(54.399109%, 20.285034%, 56.918335%)" offset="0.328125"/><stop stop-opacity="1" stop-color="rgb(54.148865%, 20.266724%, 57.087708%)" offset="0.335938"/><stop stop-opacity="1" stop-color="rgb(53.898621%, 20.248413%, 57.25708%)" offset="0.34375"/><stop stop-opacity="1" stop-color="rgb(53.646851%, 20.230103%, 57.426453%)" offset="0.351562"/><stop stop-opacity="1" stop-color="rgb(53.396606%, 20.211792%, 57.595825%)" offset="0.359375"/><stop stop-opacity="1" stop-color="rgb(53.146362%, 20.191956%, 57.765198%)" offset="0.367188"/><stop stop-opacity="1" stop-color="rgb(52.894592%, 20.173645%, 57.93457%)" offset="0.375"/><stop stop-opacity="1" stop-color="rgb(52.644348%, 20.155334%, 58.105469%)" offset="0.382812"/><stop stop-opacity="1" stop-color="rgb(52.394104%, 20.137024%, 58.274841%)" offset="0.390625"/><stop stop-opacity="1" stop-color="rgb(52.14386%, 20.118713%, 58.444214%)" offset="0.398438"/><stop stop-opacity="1" stop-color="rgb(51.89209%, 20.098877%, 58.613586%)" offset="0.40625"/><stop stop-opacity="1" stop-color="rgb(51.641846%, 20.080566%, 58.782959%)" offset="0.414062"/><stop stop-opacity="1" stop-color="rgb(51.391602%, 20.062256%, 58.952332%)" offset="0.421875"/><stop stop-opacity="1" stop-color="rgb(51.139832%, 20.043945%, 59.121704%)" offset="0.429688"/><stop stop-opacity="1" stop-color="rgb(50.889587%, 20.025635%, 59.291077%)" offset="0.4375"/><stop stop-opacity="1" stop-color="rgb(50.639343%, 20.005798%, 59.461975%)" offset="0.445313"/><stop stop-opacity="1" stop-color="rgb(50.389099%, 19.987488%, 59.631348%)" offset="0.453125"/><stop stop-opacity="1" stop-color="rgb(50.137329%, 19.969177%, 59.80072%)" offset="0.460938"/><stop stop-opacity="1" stop-color="rgb(49.887085%, 19.950867%, 59.970093%)" offset="0.46875"/><stop stop-opacity="1" stop-color="rgb(49.636841%, 19.932556%, 60.139465%)" offset="0.476563"/><stop stop-opacity="1" stop-color="rgb(49.385071%, 19.91272%, 60.308838%)" offset="0.484375"/><stop stop-opacity="1" stop-color="rgb(49.134827%, 19.894409%, 60.47821%)" offset="0.492188"/><stop stop-opacity="1" stop-color="rgb(48.884583%, 19.876099%, 60.647583%)" offset="0.5"/><stop stop-opacity="1" stop-color="rgb(48.634338%, 19.857788%, 60.818481%)" offset="0.507812"/><stop stop-opacity="1" stop-color="rgb(48.382568%, 19.839478%, 60.987854%)" offset="0.515625"/><stop stop-opacity="1" stop-color="rgb(48.132324%, 19.819641%, 61.157227%)" offset="0.523438"/><stop stop-opacity="1" stop-color="rgb(47.88208%, 19.801331%, 61.326599%)" offset="0.53125"/><stop stop-opacity="1" stop-color="rgb(47.63031%, 19.78302%, 61.495972%)" offset="0.539063"/><stop stop-opacity="1" stop-color="rgb(47.380066%, 19.764709%, 61.665344%)" offset="0.546875"/><stop stop-opacity="1" stop-color="rgb(47.129822%, 19.746399%, 61.834717%)" offset="0.554688"/><stop stop-opacity="1" stop-color="rgb(46.879578%, 19.726562%, 62.004089%)" offset="0.5625"/><stop stop-opacity="1" stop-color="rgb(46.627808%, 19.708252%, 62.174988%)" offset="0.570312"/><stop stop-opacity="1" stop-color="rgb(46.377563%, 19.689941%, 62.34436%)" offset="0.578125"/><stop stop-opacity="1" stop-color="rgb(46.127319%, 19.671631%, 62.513733%)" offset="0.585938"/><stop stop-opacity="1" stop-color="rgb(45.875549%, 19.651794%, 62.683105%)" offset="0.59375"/><stop stop-opacity="1" stop-color="rgb(45.625305%, 19.633484%, 62.852478%)" offset="0.601563"/><stop stop-opacity="1" stop-color="rgb(45.375061%, 19.615173%, 63.021851%)" offset="0.609375"/><stop stop-opacity="1" stop-color="rgb(45.124817%, 19.596863%, 63.191223%)" offset="0.617188"/><stop stop-opacity="1" stop-color="rgb(44.873047%, 19.578552%, 63.360596%)" offset="0.625"/><stop stop-opacity="1" stop-color="rgb(44.622803%, 19.558716%, 63.531494%)" offset="0.632813"/><stop stop-opacity="1" stop-color="rgb(44.372559%, 19.540405%, 63.700867%)" offset="0.640625"/><stop stop-opacity="1" stop-color="rgb(44.120789%, 19.522095%, 63.870239%)" offset="0.648437"/><stop stop-opacity="1" stop-color="rgb(43.870544%, 19.503784%, 64.039612%)" offset="0.65625"/><stop stop-opacity="1" stop-color="rgb(43.6203%, 19.485474%, 64.208984%)" offset="0.664062"/><stop stop-opacity="1" stop-color="rgb(43.370056%, 19.465637%, 64.378357%)" offset="0.671875"/><stop stop-opacity="1" stop-color="rgb(43.118286%, 19.447327%, 64.547729%)" offset="0.679688"/><stop stop-opacity="1" stop-color="rgb(42.868042%, 19.429016%, 64.717102%)" offset="0.6875"/><stop stop-opacity="1" stop-color="rgb(42.617798%, 19.410706%, 64.888%)" offset="0.695312"/><stop stop-opacity="1" stop-color="rgb(42.366028%, 19.392395%, 65.057373%)" offset="0.703125"/><stop stop-opacity="1" stop-color="rgb(42.115784%, 19.372559%, 65.226746%)" offset="0.710938"/><stop stop-opacity="1" stop-color="rgb(41.86554%, 19.354248%, 65.396118%)" offset="0.71875"/><stop stop-opacity="1" stop-color="rgb(41.61377%, 19.335938%, 65.565491%)" offset="0.726563"/><stop stop-opacity="1" stop-color="rgb(41.363525%, 19.317627%, 65.734863%)" offset="0.734375"/><stop stop-opacity="1" stop-color="rgb(41.113281%, 19.299316%, 65.904236%)" offset="0.742188"/><stop stop-opacity="1" stop-color="rgb(40.863037%, 19.27948%, 66.073608%)" offset="0.75"/><stop stop-opacity="1" stop-color="rgb(40.611267%, 19.261169%, 66.244507%)" offset="0.757813"/><stop stop-opacity="1" stop-color="rgb(40.361023%, 19.242859%, 66.413879%)" offset="0.765625"/><stop stop-opacity="1" stop-color="rgb(40.110779%, 19.224548%, 66.583252%)" offset="0.773437"/><stop stop-opacity="1" stop-color="rgb(39.859009%, 19.206238%, 66.752625%)" offset="0.78125"/><stop stop-opacity="1" stop-color="rgb(39.608765%, 19.186401%, 66.921997%)" offset="0.789062"/><stop stop-opacity="1" stop-color="rgb(39.358521%, 19.168091%, 67.09137%)" offset="0.796875"/><stop stop-opacity="1" stop-color="rgb(39.108276%, 19.14978%, 67.260742%)" offset="0.804688"/><stop stop-opacity="1" stop-color="rgb(38.856506%, 19.13147%, 67.430115%)" offset="0.8125"/><stop stop-opacity="1" stop-color="rgb(38.606262%, 19.113159%, 67.601013%)" offset="0.820312"/><stop stop-opacity="1" stop-color="rgb(38.356018%, 19.093323%, 67.770386%)" offset="0.828125"/><stop stop-opacity="1" stop-color="rgb(38.104248%, 19.075012%, 67.939758%)" offset="0.835938"/><stop stop-opacity="1" stop-color="rgb(37.854004%, 19.056702%, 68.109131%)" offset="0.84375"/><stop stop-opacity="1" stop-color="rgb(37.60376%, 19.038391%, 68.278503%)" offset="0.851563"/><stop stop-opacity="1" stop-color="rgb(37.353516%, 19.020081%, 68.447876%)" offset="0.859375"/><stop stop-opacity="1" stop-color="rgb(37.101746%, 19.000244%, 68.617249%)" offset="0.867188"/><stop stop-opacity="1" stop-color="rgb(36.851501%, 18.981934%, 68.786621%)" offset="0.875"/><stop stop-opacity="1" stop-color="rgb(36.601257%, 18.963623%, 68.955994%)" offset="0.882813"/><stop stop-opacity="1" stop-color="rgb(36.349487%, 18.945312%, 69.126892%)" offset="0.890625"/><stop stop-opacity="1" stop-color="rgb(36.099243%, 18.927002%, 69.296265%)" offset="0.898437"/><stop stop-opacity="1" stop-color="rgb(35.848999%, 18.907166%, 69.465637%)" offset="0.90625"/><stop stop-opacity="1" stop-color="rgb(35.598755%, 18.888855%, 69.63501%)" offset="0.914062"/><stop stop-opacity="1" stop-color="rgb(35.346985%, 18.870544%, 69.804382%)" offset="0.921875"/><stop stop-opacity="1" stop-color="rgb(35.096741%, 18.852234%, 69.973755%)" offset="0.929688"/><stop stop-opacity="1" stop-color="rgb(34.846497%, 18.833923%, 70.143127%)" offset="0.9375"/><stop stop-opacity="1" stop-color="rgb(34.594727%, 18.814087%, 70.3125%)" offset="0.945312"/><stop stop-opacity="1" stop-color="rgb(34.344482%, 18.795776%, 70.483398%)" offset="0.953125"/><stop stop-opacity="1" stop-color="rgb(34.094238%, 18.777466%, 70.652771%)" offset="0.960938"/><stop stop-opacity="1" stop-color="rgb(33.843994%, 18.759155%, 70.822144%)" offset="0.96875"/><stop stop-opacity="1" stop-color="rgb(33.592224%, 18.740845%, 70.991516%)" offset="0.976563"/><stop stop-opacity="1" stop-color="rgb(33.34198%, 18.721008%, 71.160889%)" offset="0.984375"/><stop stop-opacity="1" stop-color="rgb(33.091736%, 18.702698%, 71.330261%)" offset="0.992188"/><stop stop-opacity="1" stop-color="rgb(32.839966%, 18.684387%, 71.499634%)" offset="0.996343"/><stop stop-opacity="1" stop-color="rgb(32.714844%, 18.675232%, 71.585083%)" offset="1"/></linearGradient></defs><g clip-path="url(#fcb4f006a7)"><g clip-path="url(#40069d6b9b)"><path fill="url(#760c691d58)" d="M 85.992188 80.730469 L 85.992188 279.480469 L 284.742188 279.480469 L 284.742188 80.730469 Z M 85.992188 80.730469 " fill-rule="nonzero"/></g></g><path fill="#000000" d="M 150.371094 177.339844 C 150.371094 181.863281 153.527344 185.476562 158.125 185.476562 C 158.71875 185.476562 159.140625 185.40625 159.386719 185.265625 L 154.089844 192.769531 L 161.527344 192.769531 L 166.925781 184.175781 C 168.292969 181.96875 169.171875 179.441406 169.171875 177.164062 C 169.171875 172.042969 165.207031 168.21875 159.773438 168.21875 C 154.441406 168.21875 150.371094 172.078125 150.371094 177.339844 Z M 156.546875 177.09375 C 156.546875 175.304688 157.984375 173.9375 159.808594 173.9375 C 161.628906 173.9375 163.035156 175.339844 163.035156 177.128906 C 163.035156 178.917969 161.628906 180.285156 159.808594 180.285156 C 157.984375 180.285156 156.546875 178.882812 156.546875 177.09375 Z M 192.835938 180.742188 C 192.835938 174.113281 189.046875 168.21875 182.171875 168.21875 C 175.265625 168.21875 171.476562 174.113281 171.476562 180.742188 C 171.476562 187.371094 175.265625 193.261719 182.171875 193.261719 C 189.046875 193.261719 192.835938 187.371094 192.835938 180.742188 Z M 186.3125 180.742188 C 186.3125 184.003906 185.050781 187.195312 182.171875 187.195312 C 179.261719 187.195312 178 184.003906 178 180.742188 C 178 177.480469 179.261719 174.285156 182.171875 174.285156 C 185.050781 174.285156 186.3125 177.480469 186.3125 180.742188 Z M 207.308594 174.285156 C 207.308594 170.953125 204.609375 168.359375 201.136719 168.359375 C 197.664062 168.359375 194.964844 170.953125 194.964844 174.285156 C 194.964844 177.617188 197.664062 180.214844 201.136719 180.214844 C 204.609375 180.214844 207.308594 177.617188 207.308594 174.285156 Z M 203.171875 174.285156 C 203.171875 175.515625 202.292969 176.355469 201.136719 176.355469 C 199.980469 176.355469 199.101562 175.515625 199.101562 174.285156 C 199.101562 173.058594 199.980469 172.21875 201.136719 172.21875 C 202.292969 172.21875 203.171875 173.058594 203.171875 174.285156 Z M 220.460938 168.675781 L 215.09375 168.675781 L 197.207031 192.769531 L 202.574219 192.769531 Z M 210.359375 187.160156 C 210.359375 190.492188 213.0625 193.085938 216.535156 193.085938 C 220.003906 193.085938 222.707031 190.492188 222.707031 187.160156 C 222.707031 183.828125 220.003906 181.230469 216.535156 181.230469 C 213.0625 181.230469 210.359375 183.828125 210.359375 187.160156 Z M 214.5 187.160156 C 214.5 185.929688 215.375 185.089844 216.535156 185.089844 C 217.691406 185.089844 218.566406 185.929688 218.566406 187.160156 C 218.566406 188.386719 217.691406 189.226562 216.535156 189.226562 C 215.375 189.226562 214.5 188.386719 214.5 187.160156 Z M 214.5 187.160156 " fill-opacity="1" fill-rule="nonzero"/><g fill="#ffffff" fill-opacity="1"><g transform="translate(138.052495, 197.498615)"><g><path d="M 13.386719 -21.921875 L 9.675781 -21.921875 L 10.414062 -28.960938 L 24.539062 -28.960938 L 24.539062 -33.90625 L 5.636719 -33.90625 L 3.875 -17.261719 L 12.601562 -17.261719 C 18.5 -17.261719 20.566406 -14.671875 20.566406 -10.960938 C 20.566406 -7.230469 18.261719 -4.613281 14.289062 -4.613281 C 11.246094 -4.613281 8.15625 -6.277344 8.15625 -10.511719 C 8.15625 -11.03125 8.226562 -11.578125 8.324219 -12.222656 L 2.828125 -11.890625 C 2.757812 -11.269531 2.710938 -10.722656 2.710938 -10.175781 C 2.710938 -3.328125 8.15625 0.453125 14.410156 0.453125 C 21.375 0.453125 26.085938 -4.183594 26.085938 -11.152344 C 26.085938 -17.929688 22.066406 -21.921875 13.386719 -21.921875 Z M 13.386719 -21.921875 "/></g></g></g><g fill="#ffffff" fill-opacity="1"><g transform="translate(166.297314, 197.498615)"><g><path d="M 14.148438 0.453125 C 21.566406 0.453125 25.941406 -5.328125 25.941406 -16.976562 C 25.941406 -28.605469 21.636719 -34.382812 14.148438 -34.382812 C 6.609375 -34.382812 2.332031 -28.605469 2.332031 -16.976562 C 2.332031 -5.328125 6.679688 0.453125 14.148438 0.453125 Z M 14.148438 -4.519531 C 10.152344 -4.519531 7.847656 -8.417969 7.847656 -16.976562 C 7.847656 -25.65625 10.25 -29.390625 14.148438 -29.390625 C 18 -29.390625 20.449219 -25.65625 20.449219 -16.976562 C 20.449219 -8.417969 18.09375 -4.519531 14.148438 -4.519531 Z M 14.148438 -4.519531 "/></g></g></g><g fill="#ffffff" fill-opacity="1"><g transform="translate(194.542132, 197.498615)"><g><path d="M 9.914062 -19.472656 C 14.054688 -19.472656 17.335938 -22.851562 17.335938 -26.964844 C 17.335938 -31.03125 14.054688 -34.40625 9.914062 -34.40625 C 5.824219 -34.40625 2.472656 -31.054688 2.472656 -26.964844 C 2.472656 -22.804688 5.800781 -19.472656 9.914062 -19.472656 Z M 7.824219 0.0234375 L 12.53125 0.0234375 L 30.460938 -33.957031 L 25.703125 -33.957031 Z M 9.914062 -23.253906 C 7.894531 -23.253906 6.207031 -24.871094 6.207031 -26.964844 C 6.207031 -29.03125 7.894531 -30.625 9.914062 -30.625 C 11.960938 -30.625 13.601562 -29.007812 13.601562 -26.964844 C 13.601562 -24.917969 12.03125 -23.253906 9.914062 -23.253906 Z M 28.628906 0.402344 C 32.71875 0.402344 36 -2.949219 36 -7.039062 C 36 -11.152344 32.695312 -14.480469 28.628906 -14.480469 C 24.515625 -14.480469 21.164062 -11.175781 21.164062 -7.039062 C 21.164062 -2.925781 24.46875 0.402344 28.628906 0.402344 Z M 28.628906 -3.351562 C 26.535156 -3.351562 24.917969 -5.015625 24.917969 -7.039062 C 24.917969 -9.128906 26.535156 -10.746094 28.628906 -10.746094 C 30.625 -10.746094 32.339844 -9.082031 32.339844 -7.039062 C 32.339844 -5.015625 30.648438 -3.351562 28.628906 -3.351562 Z M 28.628906 -3.351562 "/></g></g></g></svg>